# xmcd
#
# Track frame offsets:
#	150
#	6973
#	18788
#	38987
#	57573
#	74777
#	92505
#	110963
#	131162
#	137486
#	152552
#	166722
#	174799
#	193219
#	200784
#	220151
#
# Disc length: 3199 seconds
#
# Revision: 82812609
# Processed by: cddbd v1.5.1PL0 Copyright (c) Steve Scherf et al.
# Submitted via: EasyCDDAExtractor 8.0.2.1
#
DISCID=e70c7d10
DTITLE=AZ - Final Call
DYEAR=2004
DGENRE=Hip-Hop
TTITLE0=Freedom (Intro) (Featuring Lemon)
TTITLE1=Omega
TTITLE2=The Truth
TTITLE3=Seems That Way
TTITLE4=Talkin Gangsta (Featuring Tony Sunshine)
TTITLE5=Side 2 Side (Featuring Ron G)
TTITLE6=You Know (Featuring Rell)
TTITLE7=No Strings
TTITLE8=Gangsta MCs (Interlude) (Featuring Lemon)
TTITLE9=Live Wire
TTITLE10=Magic Hour (Featuring CL Smooth)
TTITLE11=I Am AZ
TTITLE12=Girls R Free
TTITLE13=Poor Poor People (Interlude) (Featuring Lemon)
TTITLE14=Let Me Know (Featuring Aaliyah)
TTITLE15=Quiet Money Anthem (Featuring Nu And Young)
EXTD=
EXTT0=
EXTT1=
EXTT2=
EXTT3=
EXTT4=
EXTT5=
EXTT6=
EXTT7=
EXTT8=
EXTT9=
EXTT10=
EXTT11=
EXTT12=
EXTT13=
EXTT14=
EXTT15=
PLAYORDER=
